<svg xmlns="http://www.w3.org/2000/svg" width="680" height="412" viewBox="0 0 680 412" font-family="ui-monospace, 'SF Mono', Menlo, Consolas, monospace">
<rect width="680" height="412" rx="12" fill="#0E1116"/>
<rect x="0" y="0" width="680" height="32" rx="12" fill="#161A21"/>
<rect x="0" y="20" width="680" height="12" fill="#161A21"/>
<circle cx="22" cy="16" r="5" fill="#FF5F57"/>
<circle cx="40" cy="16" r="5" fill="#FBA94A"/>
<circle cx="58" cy="16" r="5" fill="#4F8FFF"/>
<text x="340" y="20" text-anchor="middle" fill="#8B95A7" font-size="11" letter-spacing="2">~/GIT-DIGEST</text>
<text x="22" y="62" fill="#FBA94A" font-size="13" font-weight="600">$</text>
<text x="38" y="62" fill="#E8ECF1" font-size="13">git digest --all-time</text>

<text x="22" y="98" fill="#4F8FFF" font-size="11" letter-spacing="2" font-weight="700">ALL TIME</text>
<line x1="22" y1="106" x2="658" y2="106" stroke="#252A33" stroke-width="1"/>
<text x="22" y="132" fill="#FBA94A" font-size="22" font-weight="700">3826</text><text x="86" y="132" fill="#E8ECF1" font-size="13">commits</text>
<text x="170" y="132" fill="#FBA94A" font-size="18" font-weight="700">118</text><text x="209" y="132" fill="#E8ECF1" font-size="13">repos</text>
<text x="277" y="132" fill="#FBA94A" font-size="18" font-weight="700">5</text><text x="294" y="132" fill="#E8ECF1" font-size="13">PRs merged</text>

<text x="22" y="172" fill="#4F8FFF" font-size="11" letter-spacing="2" font-weight="700">LANGUAGES</text>
<line x1="22" y1="180" x2="658" y2="180" stroke="#252A33" stroke-width="1"/>

<text x="22" y="202" fill="#E8ECF1" font-size="12">Python</text><rect x="140" y="192" width="380" height="10" rx="2" fill="#161A21"/><rect x="140" y="192" width="171" height="10" rx="2" fill="#4F8FFF"/><text x="540" y="202" fill="#8B95A7" font-size="12">45%</text>
<text x="22" y="224" fill="#E8ECF1" font-size="12">TypeScript</text><rect x="140" y="214" width="380" height="10" rx="2" fill="#161A21"/><rect x="140" y="214" width="141" height="10" rx="2" fill="#4F8FFF"/><text x="540" y="224" fill="#8B95A7" font-size="12">37%</text>
<text x="22" y="246" fill="#E8ECF1" font-size="12">CSS</text><rect x="140" y="236" width="380" height="10" rx="2" fill="#161A21"/><rect x="140" y="236" width="38" height="10" rx="2" fill="#4F8FFF"/><text x="540" y="246" fill="#8B95A7" font-size="12">10%</text>
<text x="22" y="268" fill="#E8ECF1" font-size="12">Other</text><rect x="140" y="258" width="380" height="10" rx="2" fill="#161A21"/><rect x="140" y="258" width="30" height="10" rx="2" fill="#4F8FFF"/><text x="540" y="268" fill="#8B95A7" font-size="12">8%</text>

<text x="22" y="308" fill="#4F8FFF" font-size="11" letter-spacing="2" font-weight="700">THIS WEEK</text>
<text x="120" y="308" fill="#E8ECF1" font-size="12">26 commits · 1 repos · last 7 days</text>

<text x="22" y="330" fill="#4F8FFF" font-size="11" letter-spacing="2" font-weight="700">PEAK</text>
<text x="120" y="330" fill="#E8ECF1" font-size="12">16:00 – 20:00 · afternoons</text>

<text x="22" y="352" fill="#4F8FFF" font-size="11" letter-spacing="2" font-weight="700">LAST</text>
<text x="120" y="352" fill="#E8ECF1" font-size="12">22 hours ago · private project</text>

<line x1="22" y1="376" x2="658" y2="376" stroke="#252A33" stroke-width="1"/>
<text x="22" y="394" fill="#8B95A7" font-size="11">generated by github action · refreshed 2026-06-14 16:19 UTC</text>
</svg>